HIERARCHY
ROOT newVegas:Hips
{
	OFFSET 0.000000 96.479958 0.000000
	CHANNELS 6 Xposition Yposition Zposition Xrotation Yrotation Zrotation
	JOINT newVegas:Pelvis
	{
		OFFSET 0.000000 0.000000 0.000000
		CHANNELS 3 Xrotation Yrotation Zrotation
		JOINT newVegas:LeftUpLeg
		{
			OFFSET 18.735201 -5.666702 -4.541200
			CHANNELS 3 Xrotation Yrotation Zrotation
			JOINT newVegas:LeftLeg
			{
				OFFSET -0.021200 -31.938179 0.493100
				CHANNELS 3 Xrotation Yrotation Zrotation
				JOINT newVegas:LeftFoot
				{
					OFFSET 0.021200 -31.938179 -4.336299
					CHANNELS 3 Xrotation Yrotation Zrotation
					JOINT newVegas:LeftToeBase
					{
						OFFSET 0.943001 -26.722000 15.023500
						CHANNELS 3 Xrotation Yrotation Zrotation
						End Site
						{
							OFFSET 0.000000 30.670183 0.000000
						}
					}
				}
				JOINT newVegas:Left_PantLeg
				{
					OFFSET 0.663870 -9.044666 -1.108900
					CHANNELS 3 Xrotation Yrotation Zrotation
					End Site
					{
						OFFSET 1.415995 20.635357 0.000000
					}
				}
			}
		}
		JOINT newVegas:RightUpLeg
		{
			OFFSET -18.735201 -5.666702 -4.541200
			CHANNELS 3 Xrotation Yrotation Zrotation
			JOINT newVegas:RightLeg
			{
				OFFSET 0.018946 -31.938133 0.493100
				CHANNELS 3 Xrotation Yrotation Zrotation
				JOINT newVegas:RightFoot
				{
					OFFSET -0.018946 -31.938126 -4.336299
					CHANNELS 3 Xrotation Yrotation Zrotation
					JOINT newVegas:RightToeBase
					{
						OFFSET -0.943001 -26.722004 15.023500
						CHANNELS 3 Xrotation Yrotation Zrotation
						End Site
						{
							OFFSET 0.000000 30.670187 0.000000
						}
					}
				}
				JOINT newVegas:Right_PantLeg
				{
					OFFSET -0.661674 -9.044716 -1.108900
					CHANNELS 3 Xrotation Yrotation Zrotation
					End Site
					{
						OFFSET -1.415958 20.635269 0.000000
					}
				}
			}
		}
	}
	JOINT newVegas:Spine
	{
		OFFSET 0.000000 10.199997 -0.299500
		CHANNELS 3 Xrotation Yrotation Zrotation
		JOINT newVegas:Spine1
		{
			OFFSET 0.000000 11.900002 -1.516600
			CHANNELS 3 Xrotation Yrotation Zrotation
			JOINT newVegas:Spine2
			{
				OFFSET 0.000000 13.600006 -2.842500
				CHANNELS 3 Xrotation Yrotation Zrotation
				JOINT newVegas:Neck
				{
					OFFSET 0.000000 9.624100 -2.890100
					CHANNELS 3 Xrotation Yrotation Zrotation
					JOINT newVegas:Head
					{
						OFFSET 0.000000 14.068802 -1.351900
						CHANNELS 3 Xrotation Yrotation Zrotation
						JOINT newVegas:Hair_Back
						{
							OFFSET 0.000000 3.231903 -17.524799
							CHANNELS 3 Xrotation Yrotation Zrotation
							End Site
							{
								OFFSET 0.000000 19.849884 0.000000
							}
						}
						JOINT newVegas:Hair_Front
						{
							OFFSET 0.000000 31.260406 4.573800
							CHANNELS 3 Xrotation Yrotation Zrotation
							JOINT newVegas:Hair_Front1
							{
								OFFSET 0.000000 2.284103 11.993300
								CHANNELS 3 Xrotation Yrotation Zrotation
								JOINT newVegas:Hair_Front2
								{
									OFFSET 0.000000 2.284103 11.993300
									CHANNELS 3 Xrotation Yrotation Zrotation
									End Site
									{
										OFFSET 0.000000 12.208862 0.000000
									}
								}
							}
						}
						JOINT newVegas:Jowel
						{
							OFFSET 0.000000 -7.458206 6.864100
							CHANNELS 3 Xrotation Yrotation Zrotation
							End Site
							{
								OFFSET 0.000000 19.849884 0.000000
							}
						}
					}
				}
				JOINT newVegas:LeftShoulder
				{
					OFFSET 15.263000 10.923401 -0.547700
					CHANNELS 3 Xrotation Yrotation Zrotation
					JOINT newVegas:LeftArm
					{
						OFFSET 25.438599 -2.830597 -13.032500
						CHANNELS 3 Xrotation Yrotation Zrotation
						JOINT newVegas:LeftForeArm
						{
							OFFSET 29.960503 0.000000 0.000000
							CHANNELS 3 Xrotation Yrotation Zrotation
							JOINT newVegas:LeftHand
							{
								OFFSET 27.849251 0.000000 0.000000
								CHANNELS 3 Xrotation Yrotation Zrotation
								JOINT newVegas:LeftHandThumb1
								{
									OFFSET 4.487587 -3.305161 6.305391
									CHANNELS 3 Xrotation Yrotation Zrotation
									JOINT newVegas:LeftHandThumb2
									{
										OFFSET 5.480453 -3.164139 3.164143
										CHANNELS 3 Xrotation Yrotation Zrotation
										JOINT newVegas:LeftHandThumb3
										{
											OFFSET 5.159721 -2.978973 2.978967
											CHANNELS 3 Xrotation Yrotation Zrotation
											End Site
											{
												OFFSET 2.494507 5.926697 1.738678
											}
										}
									}
								}
								JOINT newVegas:LeftHandIndex1
								{
									OFFSET 18.578728 -0.527832 5.208049
									CHANNELS 3 Xrotation Yrotation Zrotation
									JOINT newVegas:LeftHandIndex2
									{
										OFFSET 3.192009 0.000000 0.000000
										CHANNELS 3 Xrotation Yrotation Zrotation
										JOINT newVegas:LeftHandIndex3
										{
											OFFSET 3.835129 0.000000 0.000000
											CHANNELS 3 Xrotation Yrotation Zrotation
											End Site
											{
												OFFSET -0.034599 3.816971 0.371180
											}
										}
									}
								}
								JOINT newVegas:LeftHandMiddle1
								{
									OFFSET 18.476105 0.000000 0.000000
									CHANNELS 3 Xrotation Yrotation Zrotation
									JOINT newVegas:LeftHandMiddle2
									{
										OFFSET 3.324875 0.000000 0.000000
										CHANNELS 3 Xrotation Yrotation Zrotation
										JOINT newVegas:LeftHandMiddle3
										{
											OFFSET 4.596550 0.000000 0.000000
											CHANNELS 3 Xrotation Yrotation Zrotation
											End Site
											{
												OFFSET 0.057701 4.578827 0.399218
											}
										}
									}
								}
								JOINT newVegas:LeftHandRing1
								{
									OFFSET 17.732719 0.121887 -4.201567
									CHANNELS 3 Xrotation Yrotation Zrotation
									JOINT newVegas:LeftHandRing2
									{
										OFFSET 2.733170 0.000000 0.000000
										CHANNELS 3 Xrotation Yrotation Zrotation
										JOINT newVegas:LeftHandRing3
										{
											OFFSET 3.178268 0.000000 0.000000
											CHANNELS 3 Xrotation Yrotation Zrotation
											End Site
											{
												OFFSET 0.119102 3.170624 0.185394
											}
										}
									}
								}
								JOINT newVegas:LeftHandPinky1
								{
									OFFSET 15.989624 -0.606689 -7.535461
									CHANNELS 3 Xrotation Yrotation Zrotation
									JOINT newVegas:LeftHandPinky2
									{
										OFFSET 2.538986 0.000000 0.000000
										CHANNELS 3 Xrotation Yrotation Zrotation
										JOINT newVegas:LeftHandPinky3
										{
											OFFSET 2.593102 0.000000 0.000000
											CHANNELS 3 Xrotation Yrotation Zrotation
											End Site
											{
												OFFSET -0.150902 2.584198 0.152708
											}
										}
									}
								}
							}
							JOINT newVegas:Left_Sleeve
							{
								OFFSET 0.267448 -0.649796 0.577675
								CHANNELS 3 Xrotation Yrotation Zrotation
								End Site
								{
									OFFSET 0.000000 15.991241 0.000000
								}
							}
							JOINT newVegas:Left_CapeC
							{
								OFFSET 15.715958 -8.608795 -6.935905
								CHANNELS 3 Xrotation Yrotation Zrotation
								JOINT newVegas:Left_CapeC1
								{
									OFFSET 0.000000 -8.688499 0.000000
									CHANNELS 3 Xrotation Yrotation Zrotation
									End Site
									{
										OFFSET 0.000000 8.688499 0.000000
									}
								}
							}
						}
						JOINT newVegas:Left_CapeB
						{
							OFFSET 26.118385 -8.608795 -7.079235
							CHANNELS 3 Xrotation Yrotation Zrotation
							JOINT newVegas:Left_CapeB1
							{
								OFFSET 0.000000 -8.688499 0.000000
								CHANNELS 3 Xrotation Yrotation Zrotation
								End Site
								{
									OFFSET 0.000000 8.688499 0.000000
								}
							}
						}
						JOINT newVegas:Left_CapeA
						{
							OFFSET 5.115639 -8.608795 -10.395809
							CHANNELS 3 Xrotation Yrotation Zrotation
							JOINT newVegas:Left_CapeA1
							{
								OFFSET 0.000000 -8.688499 0.000000
								CHANNELS 3 Xrotation Yrotation Zrotation
								End Site
								{
									OFFSET 0.000000 8.688499 0.000000
								}
							}
						}
					}
				}
				JOINT newVegas:RightShoulder
				{
					OFFSET -15.263000 10.923401 -0.547700
					CHANNELS 3 Xrotation Yrotation Zrotation
					JOINT newVegas:RightArm
					{
						OFFSET -25.438599 -2.830597 -13.032500
						CHANNELS 3 Xrotation Yrotation Zrotation
						JOINT newVegas:RightForeArm
						{
							OFFSET -29.960503 0.000000 0.000000
							CHANNELS 3 Xrotation Yrotation Zrotation
							JOINT newVegas:RightHand
							{
								OFFSET -27.849251 0.000000 0.000000
								CHANNELS 3 Xrotation Yrotation Zrotation
								JOINT newVegas:RightHandThumb1
								{
									OFFSET -4.487587 -3.305161 6.305391
									CHANNELS 3 Xrotation Yrotation Zrotation
									JOINT newVegas:RightHandThumb2
									{
										OFFSET -5.480453 -3.164139 3.164143
										CHANNELS 3 Xrotation Yrotation Zrotation
										JOINT newVegas:RightHandThumb3
										{
											OFFSET -5.159721 -2.978973 2.978967
											CHANNELS 3 Xrotation Yrotation Zrotation
											End Site
											{
												OFFSET -2.494507 5.926697 1.738678
											}
										}
									}
								}
								JOINT newVegas:RightHandIndex1
								{
									OFFSET -18.578728 -0.527832 5.208049
									CHANNELS 3 Xrotation Yrotation Zrotation
									JOINT newVegas:RightHandIndex2
									{
										OFFSET -3.192009 0.000000 0.000000
										CHANNELS 3 Xrotation Yrotation Zrotation
										JOINT newVegas:RightHandIndex3
										{
											OFFSET -3.835129 0.000000 0.000000
											CHANNELS 3 Xrotation Yrotation Zrotation
											End Site
											{
												OFFSET 0.034599 3.816971 0.371180
											}
										}
									}
								}
								JOINT newVegas:RightHandMiddle1
								{
									OFFSET -18.476105 0.000000 0.000000
									CHANNELS 3 Xrotation Yrotation Zrotation
									JOINT newVegas:RightHandMiddle2
									{
										OFFSET -3.324875 0.000000 0.000000
										CHANNELS 3 Xrotation Yrotation Zrotation
										JOINT newVegas:RightHandMiddle3
										{
											OFFSET -4.596550 0.000000 0.000000
											CHANNELS 3 Xrotation Yrotation Zrotation
											End Site
											{
												OFFSET -0.057701 4.578827 0.399218
											}
										}
									}
								}
								JOINT newVegas:RightHandRing1
								{
									OFFSET -17.732719 0.121887 -4.201567
									CHANNELS 3 Xrotation Yrotation Zrotation
									JOINT newVegas:RightHandRing2
									{
										OFFSET -2.733170 0.000000 0.000000
										CHANNELS 3 Xrotation Yrotation Zrotation
										JOINT newVegas:RightHandRing3
										{
											OFFSET -3.178268 0.000000 0.000000
											CHANNELS 3 Xrotation Yrotation Zrotation
											End Site
											{
												OFFSET -0.119102 3.170624 0.185394
											}
										}
									}
								}
								JOINT newVegas:RightHandPinky1
								{
									OFFSET -15.989624 -0.606689 -7.535461
									CHANNELS 3 Xrotation Yrotation Zrotation
									JOINT newVegas:RightHandPinky2
									{
										OFFSET -2.538986 0.000000 0.000000
										CHANNELS 3 Xrotation Yrotation Zrotation
										JOINT newVegas:RightHandPinky3
										{
											OFFSET -2.593102 0.000000 0.000000
											CHANNELS 3 Xrotation Yrotation Zrotation
											End Site
											{
												OFFSET 0.150902 2.584198 0.152708
											}
										}
									}
								}
							}
							JOINT newVegas:Right_CapeC
							{
								OFFSET -15.715958 -8.608795 -6.935905
								CHANNELS 3 Xrotation Yrotation Zrotation
								JOINT newVegas:Right_CapeC1
								{
									OFFSET 0.000000 -8.688499 0.000000
									CHANNELS 3 Xrotation Yrotation Zrotation
									End Site
									{
										OFFSET 0.000000 8.688499 0.000000
									}
								}
							}
							JOINT newVegas:Right_Sleeve
							{
								OFFSET -0.267448 -0.649994 0.577675
								CHANNELS 3 Xrotation Yrotation Zrotation
								End Site
								{
									OFFSET 0.000000 15.991302 0.000000
								}
							}
						}
						JOINT newVegas:Right_CapeA
						{
							OFFSET -5.115540 -8.608795 -10.395824
							CHANNELS 3 Xrotation Yrotation Zrotation
							JOINT newVegas:Right_CapeA1
							{
								OFFSET 0.000000 -8.688499 0.000000
								CHANNELS 3 Xrotation Yrotation Zrotation
								End Site
								{
									OFFSET 0.000000 8.688499 0.000000
								}
							}
						}
						JOINT newVegas:Right_CapeB
						{
							OFFSET -26.118187 -8.608795 -7.079266
							CHANNELS 3 Xrotation Yrotation Zrotation
							JOINT newVegas:Right_CapeB1
							{
								OFFSET 0.000000 -8.688499 0.000000
								CHANNELS 3 Xrotation Yrotation Zrotation
								End Site
								{
									OFFSET 0.000000 8.688499 0.000000
								}
							}
						}
					}
				}
				JOINT newVegas:Left_Collar
				{
					OFFSET 18.625099 8.655502 8.828100
					CHANNELS 3 Xrotation Yrotation Zrotation
					JOINT newVegas:Left_Collar1
					{
						OFFSET 14.783401 10.540405 -1.259500
						CHANNELS 3 Xrotation Yrotation Zrotation
						End Site
						{
							OFFSET 0.000000 18.199875 0.000000
						}
					}
				}
				JOINT newVegas:Collar_Back
				{
					OFFSET 0.000000 15.630707 -20.132601
					CHANNELS 3 Xrotation Yrotation Zrotation
					End Site
					{
						OFFSET 0.000000 22.523010 0.000000
					}
				}
				JOINT newVegas:Left_Peck
				{
					OFFSET 17.239599 -5.132599 25.482599
					CHANNELS 3 Xrotation Yrotation Zrotation
					End Site
					{
						OFFSET 0.000000 22.523010 0.000000
					}
				}
				JOINT newVegas:Right_Peck
				{
					OFFSET -17.239599 -5.132202 25.482599
					CHANNELS 3 Xrotation Yrotation Zrotation
					End Site
					{
						OFFSET 0.000000 22.523010 0.000000
					}
				}
				JOINT newVegas:Right_Collar
				{
					OFFSET -18.625099 8.655792 8.828100
					CHANNELS 3 Xrotation Yrotation Zrotation
					JOINT newVegas:Right_Collar1
					{
						OFFSET -14.783401 10.539993 -1.259500
						CHANNELS 3 Xrotation Yrotation Zrotation
						End Site
						{
							OFFSET 0.000000 18.199631 0.000000
						}
					}
				}
			}
		}
		JOINT newVegas:Belly
		{
			OFFSET 0.000000 -6.540398 9.014299
			CHANNELS 3 Xrotation Yrotation Zrotation
			End Site
			{
				OFFSET 0.000000 11.566666 0.000000
			}
		}
	}
	JOINT newVegas:ElvisFacialAnim_Joint
	{
		OFFSET 1.000000 -95.330101 -8.825800
		CHANNELS 3 Xrotation Yrotation Zrotation
		End Site
		{
			OFFSET 0.000000 35.315800 0.000000
		}
	}
}
MOTION
Frames: 4
Frame Time: 0.033333
-3.155052 77.420036 1.112471 15.481956 -53.343822 10.651925 -0.000000 0.000001 -0.000001 -74.492748 13.553593 49.438087 53.949882 -16.536062 5.600617 5.712458 0.148167 -16.710958 -0.000000 -0.000000 0.000000 0.000001 0.000002 -0.000000 -29.672104 -18.591645 -42.604326 40.964179 2.551162 -4.856656 -12.882159 -7.470892 39.430436 0.000000 0.000000 -0.000000 -0.000002 0.000000 -0.000001 7.427368 3.345598 -3.411961 1.209175 1.420682 2.325056 0.209263 1.298841 1.049733 -0.390601 1.953718 -0.338250 -0.390580 1.953722 -0.338254 -0.000001 0.000002 -0.000001 -0.390530 1.953722 -0.338253 -0.390738 1.953747 -0.338249 0.000000 0.000000 -0.000001 -0.000001 0.000002 -0.000001 -2.416910 -9.914476 -4.105209 -4.668977 -14.995305 -46.826954 -96.668111 -58.172796 -94.771757 0.027017 -0.377056 -3.261905 4.766500 -0.870680 -14.442467 15.732297 12.674827 8.828581 0.000000 -0.000003 -0.000006 -3.610943 -7.817615 -81.262654 0.005179 -4.388521 -67.459081 -0.000000 0.000000 0.000005 -5.483684 2.419507 -86.651024 -0.068366 -4.897281 -76.605510 0.000001 -0.000000 -0.000006 -4.480802 3.914167 -90.412525 -1.097240 -0.675701 -62.310737 -0.000001 -0.000002 -0.000003 -8.868635 8.263644 -85.753858 -0.047924 -0.066884 -74.105654 0.000000 -0.000002 -0.000001 -0.000000 -0.000000 -0.000002 -0.000000 -0.000000 -0.000002 -0.000000 -0.000000 -0.000002 -0.000001 0.000002 -0.000000 -0.000001 0.000002 -0.000003 -0.000001 0.000002 -0.000000 -0.000001 0.000002 -0.000000 -7.387815 -19.317414 2.804090 3.089096 2.300714 51.805130 -16.213819 73.879431 16.738422 -2.716612 27.655238 10.524483 24.918342 -21.323355 30.343047 9.041938 8.262091 -18.001814 0.000000 -0.000003 0.000001 -0.070697 -3.035201 61.424219 0.006459 4.395152 66.609193 0.000003 -0.000001 0.000000 -1.235417 -0.119456 68.274264 -0.077306 4.902846 84.501905 0.000000 -0.000001 0.000002 0.883162 -4.613435 79.192970 -0.717782 1.136500 73.255760 0.000000 0.000001 -0.000001 -3.944547 0.099990 86.764795 -0.029799 0.060156 54.415137 0.000001 0.000002 0.000000 -0.000000 -0.000001 -0.000001 0.000003 -0.000001 -0.000002 -0.000000 -0.000001 -0.000000 0.000001 -0.000002 0.000001 0.000002 -0.000002 0.000001 0.000001 -0.000002 0.000001 0.000002 -0.000002 0.000002 0.000001 0.000001 0.000000 0.000001 0.000001 0.000000 0.000001 0.000001 0.000000 0.000001 0.000001 0.000000 0.000001 0.000001 0.000000 0.000001 0.000001 0.000000 0.000001 0.000001 0.000000 -0.000000 -0.000001 -0.000000 -0.000000 0.000001 -0.000001 
-3.241005 77.692734 0.159004 13.382633 -57.785914 11.305075 -0.000000 -0.000002 0.000000 -69.298696 16.498602 51.485109 51.700724 -14.879466 4.951026 5.253129 0.400010 -18.654100 0.000000 -0.000002 0.000000 0.000000 0.000001 -0.000000 -33.571821 -14.386853 -45.053284 45.715245 6.631715 -4.892282 -14.003977 -7.268150 37.015565 -0.000000 0.000000 -0.000000 -0.000000 0.000000 -0.000001 7.533688 3.449643 -3.204684 1.047006 1.364475 1.617494 0.255201 1.270464 0.609512 0.032120 2.323617 -0.597260 0.032127 2.323635 -0.597265 -0.000001 0.000005 -0.000001 0.032193 2.323620 -0.597266 0.031978 2.323641 -0.597255 0.000001 0.000001 -0.000001 -0.000001 0.000005 -0.000002 -2.164213 -7.447509 -6.103664 -4.667610 -10.305125 -44.488874 -117.752857 -66.409642 -111.654557 -0.754017 -9.013079 -14.805427 4.766502 -0.870680 -14.442464 15.732296 12.674830 8.828581 0.000003 -0.000002 -0.000003 -3.610942 -7.817613 -81.262654 0.005180 -4.388521 -67.459081 -0.000000 -0.000000 0.000001 -5.483684 2.419508 -86.651031 -0.068366 -4.897283 -76.605503 -0.000000 0.000000 0.000001 -4.480799 3.914169 -90.412532 -1.097242 -0.675702 -62.310730 -0.000001 -0.000002 -0.000002 -8.868632 8.263644 -85.753858 -0.047921 -0.066885 -74.105654 0.000001 -0.000002 -0.000001 0.000000 0.000000 0.000001 0.000000 0.000000 0.000001 -0.000000 0.000000 0.000001 -0.000001 -0.000002 0.000000 0.000000 -0.000002 -0.000003 -0.000001 -0.000002 0.000000 -0.000001 -0.000001 0.000001 -4.073159 -11.472269 8.001408 2.409397 3.447155 39.093076 -26.116246 76.683900 24.903928 1.514945 12.198615 9.906039 24.918342 -21.323355 30.343051 9.041936 8.262097 -18.001819 0.000002 -0.000008 0.000000 -0.070697 -3.035202 61.424219 0.006460 4.395149 66.609193 0.000001 -0.000001 -0.000001 -1.235415 -0.119459 68.274270 -0.077307 4.902846 84.501905 -0.000003 0.000001 -0.000001 0.883159 -4.613435 79.192970 -0.717782 1.136496 73.255760 0.000001 -0.000001 0.000000 -3.944549 0.099986 86.764788 -0.029801 0.060156 54.415137 -0.000001 0.000002 0.000001 -0.000001 0.000001 -0.000000 -0.000001 -0.000001 -0.000001 -0.000001 0.000001 -0.000000 0.000001 0.000001 -0.000003 0.000001 0.000001 -0.000004 0.000001 0.000001 -0.000003 0.000001 0.000001 -0.000002 -0.000001 0.000002 -0.000000 -0.000001 0.000002 -0.000000 -0.000001 0.000002 -0.000000 -0.000001 0.000002 -0.000000 -0.000001 0.000002 -0.000000 -0.000001 0.000002 -0.000000 -0.000001 0.000002 -0.000000 0.000001 -0.000000 -0.000000 -0.000000 -0.000002 0.000000 
-3.036671 77.682152 -0.655132 11.681757 -60.887940 11.871350 0.000000 -0.000002 -0.000000 -65.187448 18.565171 52.158781 50.504307 -11.602938 3.950102 5.091616 0.317850 -19.626258 -0.000000 -0.000000 -0.000000 0.000000 -0.000001 -0.000001 -36.777246 -10.676746 -46.913035 49.814506 9.572127 -4.969202 -14.738180 -7.070437 35.211893 0.000000 -0.000000 0.000000 0.000001 0.000001 0.000003 7.849306 2.958159 -3.013686 0.834164 1.148776 0.896207 0.262177 1.085399 0.170451 0.363547 2.845973 -0.855483 0.363540 2.845965 -0.855479 0.000001 0.000002 0.000000 0.363548 2.845978 -0.855476 0.363549 2.845987 -0.855483 0.000001 0.000001 -0.000000 0.000001 0.000002 -0.000000 -1.705431 -6.420953 -6.472043 -6.901348 -3.966801 -40.709922 -137.737882 -76.497074 -130.182668 -4.041456 -18.060040 -20.304114 4.766500 -0.870678 -14.442466 15.732299 12.674831 8.828587 0.000000 -0.000001 -0.000001 -3.610939 -7.817614 -81.262654 0.005176 -4.388520 -67.459074 0.000002 -0.000002 -0.000000 -5.483690 2.419507 -86.651031 -0.068366 -4.897281 -76.605510 -0.000001 -0.000001 -0.000000 -4.480807 3.914166 -90.412525 -1.097237 -0.675701 -62.310737 -0.000002 0.000001 0.000001 -8.868642 8.263646 -85.753858 -0.047922 -0.066885 -74.105661 0.000000 -0.000003 0.000001 0.000000 -0.000001 -0.000001 0.000000 -0.000001 -0.000001 -0.000000 -0.000001 -0.000001 0.000001 0.000002 -0.000001 0.000001 0.000001 -0.000004 0.000001 0.000002 -0.000001 0.000000 0.000002 -0.000001 -1.773596 -3.655000 9.964859 -0.407312 6.195134 25.021396 -59.106975 77.631124 56.064505 3.015180 -3.749779 8.928243 24.918347 -21.323352 30.343044 9.041938 8.262096 -18.001812 -0.000000 -0.000003 0.000001 -0.070695 -3.035201 61.424219 0.006459 4.395143 66.609193 0.000002 -0.000001 -0.000001 -1.235410 -0.119453 68.274270 -0.077306 4.902849 84.501905 -0.000001 -0.000001 -0.000000 0.883163 -4.613432 79.192970 -0.717780 1.136496 73.255760 -0.000002 -0.000001 -0.000001 -3.944548 0.099987 86.764795 -0.029799 0.060156 54.415137 0.000004 0.000002 0.000001 -0.000003 0.000000 0.000002 -0.000001 -0.000000 0.000001 -0.000002 0.000001 0.000003 -0.000001 0.000001 0.000003 -0.000000 0.000002 0.000002 -0.000001 0.000001 0.000003 -0.000000 0.000002 0.000001 0.000001 0.000002 -0.000000 0.000001 0.000002 -0.000000 0.000001 0.000002 -0.000000 0.000001 0.000002 -0.000000 0.000001 0.000002 -0.000000 0.000001 0.000002 -0.000000 0.000001 0.000002 -0.000000 -0.000002 0.000000 0.000000 0.000000 -0.000002 -0.000000 
-2.459887 77.149033 -1.052674 10.933822 -61.562312 12.218044 0.000000 -0.000001 -0.000000 -63.840501 16.214236 51.335821 51.168448 -7.553397 2.520962 9.577081 -0.742163 -20.018255 0.000000 -0.000000 0.000000 0.000000 0.000000 -0.000000 -38.597741 -8.250901 -48.078118 52.951035 10.459511 -5.109666 -15.344536 -7.196808 34.858318 -0.000000 -0.000000 0.000000 0.000002 0.000000 -0.000001 8.420900 1.294667 -2.603674 0.549033 0.618590 0.272333 0.185851 0.585453 -0.187028 0.337952 3.343605 -1.041349 0.337951 3.343624 -1.041353 0.000000 0.000001 0.000000 0.338025 3.343617 -1.041355 0.337956 3.343610 -1.041349 -0.000000 0.000000 -0.000000 0.000000 0.000001 -0.000000 -1.124465 -7.167150 -4.945482 -10.040919 3.077304 -35.464323 -115.819408 -92.701957 -110.855644 -7.495140 -27.022049 -21.711081 4.766501 -0.870679 -14.442466 15.732301 12.674830 8.828584 0.000000 -0.000001 -0.000003 -3.610943 -7.817613 -81.262654 0.005177 -4.388524 -67.459081 0.000000 -0.000001 -0.000002 -5.483686 2.419507 -86.651024 -0.068368 -4.897281 -76.605510 0.000004 0.000001 0.000000 -4.480804 3.914167 -90.412525 -1.097240 -0.675700 -62.310737 0.000002 0.000001 0.000002 -8.868632 8.263642 -85.753858 -0.047920 -0.066886 -74.105661 0.000001 -0.000005 0.000004 -0.000002 0.000001 0.000001 -0.000002 0.000001 0.000001 -0.000003 0.000001 0.000001 0.000001 0.000001 0.000000 0.000002 0.000001 -0.000003 0.000001 0.000001 0.000000 0.000001 0.000002 0.000001 0.598402 1.620586 6.025586 -8.545447 11.859059 15.524456 -92.686562 72.607131 87.838050 2.390516 -19.182332 7.871973 24.918350 -21.323354 30.343047 9.041939 8.262095 -18.001811 0.000001 -0.000000 -0.000001 -0.070696 -3.035200 61.424219 0.006460 4.395152 66.609186 -0.000000 -0.000001 -0.000001 -1.235411 -0.119458 68.274270 -0.077309 4.902840 84.501905 -0.000003 0.000000 -0.000000 0.883167 -4.613437 79.192970 -0.717784 1.136493 73.255760 -0.000002 -0.000001 -0.000001 -3.944542 0.099986 86.764795 -0.029801 0.060156 54.415144 -0.000003 0.000002 -0.000000 0.000001 0.000002 0.000002 0.000001 0.000000 -0.000001 0.000001 0.000002 0.000001 0.000001 0.000001 -0.000000 0.000001 0.000002 -0.000000 0.000001 0.000001 -0.000000 0.000001 0.000003 -0.000000 -0.000001 0.000001 -0.000000 -0.000001 0.000001 -0.000000 -0.000001 0.000001 -0.000000 -0.000001 0.000001 -0.000000 -0.000001 0.000001 -0.000000 -0.000001 0.000001 -0.000000 -0.000001 0.000001 -0.000000 -0.000000 0.000000 -0.000000 0.000000 -0.000001 -0.000000 
